<?xml version="1.0" encoding="UTF-8" standalone="no"?>
<!-- Created with Inkscape (http://www.inkscape.org/) -->

<svg
   xmlns:dc="http://purl.org/dc/elements/1.1/"
   xmlns:cc="http://creativecommons.org/ns#"
   xmlns:rdf="http://www.w3.org/1999/02/22-rdf-syntax-ns#"
   xmlns:svg="http://www.w3.org/2000/svg"
   xmlns="http://www.w3.org/2000/svg"
   xmlns:sodipodi="http://sodipodi.sourceforge.net/DTD/sodipodi-0.dtd"
   xmlns:inkscape="http://www.inkscape.org/namespaces/inkscape"
   width="744.09448819"
   height="1052.3622047"
   id="svg3858"
   version="1.1"
   inkscape:version="0.48.4 r9939"
   sodipodi:docname="New document 16">
  <defs
     id="defs3860" />
  <sodipodi:namedview
     id="base"
     pagecolor="#ffffff"
     bordercolor="#666666"
     borderopacity="1.0"
     inkscape:pageopacity="0.0"
     inkscape:pageshadow="2"
     inkscape:zoom="0.98994949"
     inkscape:cx="309.22981"
     inkscape:cy="449.20558"
     inkscape:document-units="px"
     inkscape:current-layer="layer1"
     showgrid="false"
     inkscape:window-width="470"
     inkscape:window-height="412"
     inkscape:window-x="2649"
     inkscape:window-y="477"
     inkscape:window-maximized="0" />
  <metadata
     id="metadata3863">
    <rdf:RDF>
      <cc:Work
         rdf:about="">
        <dc:format>image/svg+xml</dc:format>
        <dc:type
           rdf:resource="http://purl.org/dc/dcmitype/StillImage" />
        <dc:title></dc:title>
      </cc:Work>
    </rdf:RDF>
  </metadata>
  <g
     inkscape:label="Layer 1"
     inkscape:groupmode="layer"
     id="layer1">
    <path
       id="path3040"
       style="fill:none;stroke:#808182;stroke-width:0.89999998;stroke-linecap:butt;stroke-linejoin:round;stroke-miterlimit:10;stroke-opacity:1;stroke-dasharray:none"
       d="m 187.42508,685.70102 0,-43.4847"
       inkscape:connector-curvature="0" />
    <path
       id="path3042"
       style="fill:none;stroke:#808182;stroke-width:0.89999998;stroke-linecap:butt;stroke-linejoin:round;stroke-miterlimit:10;stroke-opacity:1;stroke-dasharray:none"
       d="m 185.91158,649.42442 1.5135,0 m -1.5135,14.53485 1.5135,0 m -1.5135,14.475 1.5135,0 m -1.5135,7.26675 1.5135,0"
       inkscape:connector-curvature="0" />
    <path
       id="path3044"
       style="fill:none;stroke:#808182;stroke-width:0.89999998;stroke-linecap:butt;stroke-linejoin:round;stroke-miterlimit:10;stroke-opacity:1;stroke-dasharray:none"
       d="m 187.42508,685.70102 105.582,0"
       inkscape:connector-curvature="0" />
    <path
       id="path3046"
       style="fill:none;stroke:#808182;stroke-width:0.89999998;stroke-linecap:butt;stroke-linejoin:round;stroke-miterlimit:10;stroke-opacity:1;stroke-dasharray:none"
       d="m 283.34558,685.70102 0,1.56975 m -19.185,-1.56975 0,1.56975 m -19.185,-1.56975 0,1.56975 m -19.1835,-1.56975 0,1.56975 m -19.185,-1.56975 0,1.56975 m -19.182,-1.56975 0,1.56975"
       inkscape:connector-curvature="0" />
    <path
       id="path3048"
       style="fill:none;stroke:#2b2e72;stroke-width:1.24999952;stroke-linecap:round;stroke-linejoin:round;stroke-miterlimit:10;stroke-opacity:1;stroke-dasharray:none"
       d="m 190.03808,649.07642 0.1185,7.09215 0.057,3.4302 0.1155,2.8488 0.117,0.92865 0.0585,1.6863 0.1155,0.52275 0.0585,0.46635 0.117,0.3486 0.114,0.3498 0.06,0.58125 0.117,-0.0585 0.117,0.40605 0.0585,0.3486 0.114,0.3492 0.117,0.4659 0.0585,0 0.1155,0.2325 0.117,0.4641 0.057,0.1758 0.117,0.11655 0.117,0.0563 0.0585,0.2913 0.1155,0.40605 0.057,0.11775 0.117,0.23265 0.117,0.29115 0.057,0.17235 0.117,0.0585 0.1155,0.1752 0.0585,0.1734 0.1155,0.1167 0.117,0 0.0585,0.0585 0.1155,0.174 0.1155,0.1173 0.0585,0.0575 0.1185,-0.0575 0.1155,0.2889 0.06,-0.0575 0.114,0 0.117,0.2337 0.057,0 0.117,0.17235 0.0585,0.11775 0.2325,0 0.0585,0.0587 0.1155,0.28995 0.117,0 0.057,0.1161 0.1155,0 0.117,-0.0574 0.0585,0.174 0.1155,0 0.1155,0.0587 0.06,0.0585 0.1155,0 0.117,0.23145 0.0585,0 0.114,0.0575 0.1185,0 0.0585,0.0597 0.117,0.1167 0.057,-0.1167 0.117,0.1167 0.114,0.11475 0.0585,0 0.117,0.0575 0.117,0 0.057,-0.0575 0.117,0.2913 0.1155,-0.0587 0.0585,0.1161 0.231,0 0.0585,0.11775 0.117,-0.0605 0.1155,0.1179 0.0585,0 0.117,0.0573 0.1155,-0.0573 0.0585,0.11475 0.117,0.0593 0.057,-0.0593 0.117,0.0593 0.1155,0.0573 0.0585,0.0587 0.234,0 0.057,0.1161 0.117,-0.0575 0.1155,0.0575 0.0585,0 0.1155,0.174 0.117,-0.0575 0.0585,0.11595 0.1155,-0.0585 0.117,0.0585 0.057,-0.0585 0.117,0.11715 0.0585,0.0591 0.231,0 0.0585,0.0587 0.2325,0 0.0585,0.0575 0.1155,0 0.117,0.11595 0.06,-0.0585 0.1155,0.0585 0.1155,0 0.0585,0.0581 0.1155,-0.0581 0.117,0.0581 0.0585,0.0587 0.1155,-0.0587 0.1155,0.0587 0.1755,0 0.057,0.0574 0.1185,0.0585 0.114,-0.0585 0.057,0.11595 0.1185,0.11775 0.1155,-0.0597 0.057,0.0597 0.117,-0.0597 0.117,0.0597 0.0585,0.0575 0.1155,0.0575 0.117,-0.1149 0.0585,0.0575 0.1155,0.0575 0.2925,0 0.114,0.0574 0.057,0.0591 0.1185,-0.0591 0.0585,0.0591 0.2325,0 0.057,0.0575 0.117,-0.0575 0.117,0 0.0585,0.0575 0.1155,0 0.1155,0.0587 0.0585,0.0585 0.4065,0 0.1155,0.0575 0.0585,-0.0575 0.117,0 0.117,0.0575 0.2325,0 0.117,0.0591 0.1155,-0.0591 0.0585,0.0591 0.1155,0.0575 0.1155,-0.0575 0.0585,0.0575 0.5235,0 0.0585,0.0574 0.117,0.0575 0.1125,-0.0575 0.06,0.0575 0.117,0 0.057,-0.0575 0.117,0.11715 0.1155,-0.0597 0.0585,0.0597 0.408,0 0.117,0.058 0.057,-0.058 0.117,0.058 0.4065,0 0.057,0.0587 0.117,0 0.117,0.0575 0.057,0 0.117,-0.0575 0.0585,0.0575 0.1155,-0.0575 0.117,0.0575"
       inkscape:connector-curvature="0" />
    <path
       id="path3050"
       style="fill:none;stroke:#2b2e72;stroke-width:1.24999952;stroke-linecap:round;stroke-linejoin:round;stroke-miterlimit:10;stroke-opacity:1;stroke-dasharray:none"
       d="m 209.22458,677.15522 0.0585,0 0.117,0.0573 0.1725,0 0.1155,0.0587 0.117,-0.0587 0.0585,0 0.117,0.0587 0.1155,0 0.0585,0.0587 0.117,0 0.117,-0.0587 0.0585,0.0587 0.1155,-0.0587 0.1155,0.0587 0.1755,0 0.057,0.0591 0.5235,0 0.057,0.0562 0.117,-0.0562 0.117,0 0.057,0.0562 0.117,0 0.114,0.0587 0.0585,-0.0587 0.117,0.0587 0.1755,0 0.1155,0.0575 0.117,-0.0575 0.057,0.0575 0.1185,0 0.0585,0.0585 0.1155,-0.0585 0.1155,0 0.0585,0.0585 0.1155,-0.0585 0.4065,0 0.0585,0.0585 0.1155,-0.0585 0.1185,0.0585 0.1725,0 0.117,0.0593 0.1755,0 0.057,0.0575 0.8145,0 0.0585,0.0585 0.5805,0 0.1155,0.0587 0.1155,-0.0587 0.06,0.0587 0.405,0 0.06,0.0575 0.1155,-0.0575 0.1185,0.0575 0.0585,-0.0575 0.114,0.0575 0.465,0 0.117,0.0579 0.1155,0.0587 0.0585,-0.0587 0.291,0 0.1155,0.0587 0.0585,-0.0587 0.117,0 0.1155,0.0587 0.0585,-0.0587 0.1155,0.0587 0.117,0 0.0585,-0.0587 0.1155,0.0587 0.1155,0.0587 0.2925,0 0.0585,0.0573 0.696,0 0.06,0.0593 0.1155,0 0.117,-0.0593 0.0555,0.0593 0.117,-0.0593 0.117,0.0593 0.057,0 0.117,0.0575 0.1155,-0.0575 0.291,0 0.0585,0.0575 0.1155,0 0.117,-0.0575 0.0585,0.11595 0.117,-0.0585 0.174,0 0.1155,0.0585 0.0585,-0.0585 0.1155,0 0.117,0.0585 0.6405,0 0.1155,0.0575 0.1155,-0.0575 0.06,0.0575 0.288,0 0.117,0.0574 0.1755,0 0.1155,-0.0574 0.0585,0 0.117,0.0574 0.582,0 0.1155,0.0587 0.5805,0 0.057,0.0591 0.117,-0.0591 0.174,0 0.1185,0.0591 0.0555,-0.0591 0.117,0.0591 0.117,-0.0591 0.0585,0.0591 0.4065,0 0.117,0.0575 0.0585,0 0.1155,-0.0575 0.1155,0.0575 0.0585,-0.0575 0.117,0.0575 0.348,0 0.117,0.0575 0.1155,-0.0575 0.06,0.0575 0.1125,-0.0575 0.117,0 0.0585,0.0575 0.234,0"
       inkscape:connector-curvature="0" />
    <path
       id="path3052"
       style="fill:none;stroke:#2b2e72;stroke-width:1.24999952;stroke-linecap:round;stroke-linejoin:round;stroke-miterlimit:10;stroke-opacity:1;stroke-dasharray:none"
       d="m 228.40808,678.66632 0.465,0 0.117,0.0585 0.06,-0.0585 0.114,0.0585 0.057,-0.0585 0.2325,0 0.06,0.0585 0.117,-0.0585 0.1155,0.0585 0.057,-0.0585 0.117,0.0585 0.405,0 0.0585,0.0593 0.234,0 0.057,-0.0593 0.117,0.0593 0.117,0 0.0585,-0.0593 0.1155,0.0593 0.0585,-0.0593 0.1155,0.0593 0.699,0 0.057,0.0587 0.813,0 0.0585,-0.0587 0.117,0.0587 0.0585,0 0.1155,0.0573 0.117,0 0.0585,-0.0573 0.1155,0.0573 0.117,-0.0573 0.0585,0.11475 0.1155,-0.11475 0.1155,0.0573 0.0585,-0.0573 0.117,0.11475 0.1155,-0.0575 0.174,0 0.117,0.0575 0.0585,-0.0575 0.117,0 0.114,0.0575 0.0585,0 0.117,-0.0575 0.0585,0.0575 0.231,0 0.057,0.0574 0.1185,-0.0574 0.1155,0 0.0585,0.0574 0.1155,0 0.117,-0.0574 0.0585,0.0574 0.117,-0.0574 0.174,0 0.1155,0.0574 0.582,0 0.0585,0.0575 0.117,-0.0575 0.1155,0.0575 0.0585,0 0.114,-0.0575 0.117,0.0575 0.174,0 0.117,-0.0575 0.0585,0.0575 1.0455,0 0.117,0.0591 0.1155,-0.0591 0.0585,0.0591 0.117,-0.0591 0.117,0.0591 0.6375,0 0.1185,0.0587 0.114,-0.0587 0.0585,0 0.117,0.0587 0.0585,0 0.117,-0.0587 0.1155,0.0587 0.0585,-0.0587 0.1155,0.0587 0.465,0 0.1155,-0.0587 0.1185,0.0587 0.8115,0 0.117,0.0587 0.174,0 0.1155,-0.0587 0.1185,0.0587 0.0585,-0.0587 0.1155,0.0587 0.8715,0 0.117,0.0573 0.0585,-0.0573 0.2895,0 0.117,0.0573 0.057,-0.0573 0.1155,0.0573 0.117,-0.0573 0.057,0.0573 0.9915,0 0.0585,0.0593 0.114,-0.0593 0.1185,0.0593 0.0555,-0.0593 0.117,0.0593 0.117,-0.0593 0.0585,0.0593 1.1055,0"
       inkscape:connector-curvature="0" />
    <path
       id="path3054"
       style="fill:none;stroke:#2b2e72;stroke-width:1.24999952;stroke-linecap:round;stroke-linejoin:round;stroke-miterlimit:10;stroke-opacity:1;stroke-dasharray:none"
       d="m 247.59458,679.36472 0.348,0 0.1155,0.0575 0.0585,0 0.117,-0.0575 0.1155,0 0.057,0.0575 0.1185,-0.0575 0.291,0 0.114,0.0575 1.338,0 0.0585,0.0585 0.4065,0 0.117,-0.0585 0.057,0.0585 0.1155,-0.0585 0.1185,0.0585 1.8,0 0.117,0.0587 0.0585,-0.0587 0.117,0.0587 0.8715,0 0.057,-0.0587 0.117,0.0587 0.408,0 0.057,0.0575 0.117,-0.0575 0.1155,0.0575 0.3495,0 0.1155,-0.0575 0.06,0.0575 0.522,0 0.057,-0.0575 0.117,0.0575 1.1625,0 0.0585,0.058 0.1155,-0.058 0.117,0.058 0.0585,-0.058 0.117,0.058 0.2895,0 0.1155,-0.058 0.06,0.058 1.1625,0 0.1155,0.0573 0.0585,-0.0573 0.117,0 0.1155,0.0573 0.057,-0.0573 0.234,0 0.057,0.0573 0.291,0 0.117,-0.0573 0.0585,0.0573 0.2895,0 0.1155,-0.0573 0.117,0.0573 1.047,0 0.117,0.0587 0.057,0 0.117,-0.0587 0.0585,0.0587 0.1155,0 0.117,-0.0587 0.0555,0 0.1185,0.0587 2.0925,0 0.1155,0.0575 0.1185,0 0.0555,-0.0575 0.1155,0.0575 0.1185,-0.0575 0.057,0.0575 0.1155,-0.0575 0.117,0.0575 0.0585,0 0.117,-0.0575 0.1155,0.0575 0.525,0"
       inkscape:connector-curvature="0" />
    <path
       id="path3056"
       style="fill:none;stroke:#2b2e72;stroke-width:1.24999952;stroke-linecap:round;stroke-linejoin:round;stroke-miterlimit:10;stroke-opacity:1;stroke-dasharray:none"
       d="m 266.72108,679.82822 1.2765,0 0.0585,0.0591 0.117,-0.0591 0.174,0 0.117,0.0591 0.1155,-0.0591 0.0585,0.0591 0.117,-0.0591 0.117,0.0591 0.0585,0 0.1155,-0.0591 0.1155,0.0591 0.0585,0 0.117,-0.0591 0.1155,0.0591 0.174,0 0.1155,-0.0591 0.0585,0.0591 0.4665,0 0.1155,0.0587 0.1155,-0.0587 0.2925,0 0.057,0.0587 0.5235,0 0.0585,-0.0587 0.1155,0.0587 0.117,0 0.0585,-0.0587 0.117,0.0587 0.057,-0.0587 0.114,0.0587 0.582,0 0.117,-0.0587 0.0585,0.0587 0.6975,0 0.117,0.0587 0.057,-0.0587 0.4065,0 0.0585,0.0587 0.117,0 0.117,-0.0587 0.057,0.0587 0.4065,0 0.117,-0.0587 0.0585,0.0587 0.2895,0 0.1185,-0.0587 0.057,0.0587 1.4535,0 0.1155,0.0573 0.1155,0 0.0585,-0.0573 0.117,0 0.0585,0.0573 0.117,-0.0573 0.114,0 0.06,0.0573 0.813,0 0.0585,0.0575 0.117,-0.0575 0.1155,0 0.0585,0.0575 0.117,-0.0575 0.114,0 0.06,0.0575 0.1155,-0.0575 0.348,0 0.117,0.0575 0.117,0 0.057,-0.0575 0.2325,0 0.0585,0.0575 1.2795,0 0.0585,-0.0575 0.1155,0.0575 1.7445,0 0.0585,0.0592 0.231,0 0.0585,-0.0592 0.117,0.0592 0.1155,-0.0592 0.06,0.0592 0.87,0 0.1185,0.0585 0.057,-0.0585 0.5805,0 0.117,0.0585 0.1155,-0.0585 0.0585,0"
       inkscape:connector-curvature="0" />
    <g
       transform="matrix(0,1.2499995,1.2499995,0,32.694076,556.60202)"
       id="g3058">
      <text
         id="text3060"
         transform="matrix(0,1,1,0,98.7919,112.282)">
        <tspan
           id="tspan3062"
           sodipodi:role="line"
           y="0"
           x="0 2.5358202 3.7936158 6.3294582"
           style="font-size:5px;font-variant:normal;font-weight:normal;writing-mode:lr-tb;fill:#100f0d;fill-opacity:1;fill-rule:nonzero;stroke:none;font-family:Calibri;-inkscape-font-specification:Calibri">0.05</tspan>
        <tspan
           id="tspan3064"
           sodipodi:role="line"
           y="-11.6048"
           x="0 2.5358202 3.7936158 6.3294582"
           style="font-size:5px;font-variant:normal;font-weight:normal;writing-mode:lr-tb;fill:#100f0d;fill-opacity:1;fill-rule:nonzero;stroke:none;font-family:Calibri;-inkscape-font-specification:Calibri">0.15</tspan>
        <tspan
           id="tspan3066"
           sodipodi:role="line"
           y="-23.2096"
           x="0 2.5358202 3.7936158 6.3294582"
           style="font-size:5px;font-variant:normal;font-weight:normal;writing-mode:lr-tb;fill:#100f0d;fill-opacity:1;fill-rule:nonzero;stroke:none;font-family:Calibri;-inkscape-font-specification:Calibri">0.25</tspan>
        <tspan
           id="tspan3068"
           sodipodi:role="line"
           y="10.644"
           x="10.522 82.303001 84.838821 87.429482 89.965302 92.501122"
           style="font-size:5px;font-variant:normal;font-weight:normal;writing-mode:lr-tb;fill:#100f0d;fill-opacity:1;fill-rule:nonzero;stroke:none;font-family:Calibri;-inkscape-font-specification:Calibri">010000</tspan>
      </text>
    </g>
    <g
       transform="matrix(0,1.2499995,1.2499995,0,32.694076,556.60202)"
       id="g3070">
      <text
         id="text3072"
         transform="matrix(0,1,1,0,111.001,153.572)">
        <tspan
           id="tspan3074"
           sodipodi:role="line"
           style="font-size:6px;font-variant:normal;writing-mode:lr-tb;fill:#100f0d;fill-opacity:1;fill-rule:nonzero;stroke:none;font-family:Calibri-Identity;-inkscape-font-specification:Calibri-Identity-H"
           x="0"
           y="0">Iterations</tspan>
      </text>
    </g>
    <path
       id="path3076"
       style="fill:none;stroke:#808081;stroke-width:0.62500048;stroke-linecap:butt;stroke-linejoin:miter;stroke-miterlimit:10;stroke-opacity:1;stroke-dasharray:none"
       d="m 188.04608,649.58027 1.875,0"
       inkscape:connector-curvature="0" />
    <path
       id="path3078"
       style="fill:none;stroke:#808081;stroke-width:0.62500048;stroke-linecap:butt;stroke-linejoin:miter;stroke-miterlimit:10;stroke-opacity:1;stroke-dasharray:3.67875, 3.67875;stroke-dashoffset:0"
       d="m 193.60058,649.58027 93.8235,0"
       inkscape:connector-curvature="0" />
    <path
       id="path3080"
       style="fill:none;stroke:#808081;stroke-width:0.62500048;stroke-linecap:butt;stroke-linejoin:miter;stroke-miterlimit:10;stroke-opacity:1;stroke-dasharray:none"
       d="m 289.26308,649.58027 1.875,0"
       inkscape:connector-curvature="0" />
    <path
       id="path3082"
       style="fill:none;stroke:#808081;stroke-width:0.62500048;stroke-linecap:butt;stroke-linejoin:miter;stroke-miterlimit:10;stroke-opacity:1;stroke-dasharray:none"
       d="m 188.04608,664.09457 1.875,0"
       inkscape:connector-curvature="0" />
    <path
       id="path3084"
       style="fill:none;stroke:#808081;stroke-width:0.62500048;stroke-linecap:butt;stroke-linejoin:miter;stroke-miterlimit:10;stroke-opacity:1;stroke-dasharray:3.67875, 3.67875;stroke-dashoffset:0"
       d="m 193.60058,664.09457 93.8235,0"
       inkscape:connector-curvature="0" />
    <path
       id="path3086"
       style="fill:none;stroke:#808081;stroke-width:0.62500048;stroke-linecap:butt;stroke-linejoin:miter;stroke-miterlimit:10;stroke-opacity:1;stroke-dasharray:none"
       d="m 289.26308,664.09457 1.875,0"
       inkscape:connector-curvature="0" />
    <path
       id="path3088"
       style="fill:none;stroke:#808081;stroke-width:0.62500048;stroke-linecap:butt;stroke-linejoin:miter;stroke-miterlimit:10;stroke-opacity:1;stroke-dasharray:none"
       d="m 188.36858,678.62582 1.875,0"
       inkscape:connector-curvature="0" />
    <path
       id="path3090"
       style="fill:none;stroke:#808081;stroke-width:0.62500048;stroke-linecap:butt;stroke-linejoin:miter;stroke-miterlimit:10;stroke-opacity:1;stroke-dasharray:3.67875, 3.67875;stroke-dashoffset:0"
       d="m 193.92308,678.62582 93.822,0"
       inkscape:connector-curvature="0" />
    <path
       id="path3092"
       style="fill:none;stroke:#808081;stroke-width:0.62500048;stroke-linecap:butt;stroke-linejoin:miter;stroke-miterlimit:10;stroke-opacity:1;stroke-dasharray:none"
       d="m 289.58558,678.62582 1.875,0"
       inkscape:connector-curvature="0" />
    <g
       transform="matrix(0,1.2499995,1.2499995,0,32.694076,556.60202)"
       id="g3094">
      <text
         id="text3096"
         transform="matrix(-1,0,0,1,98.4441,109.352)">
        <tspan
           id="tspan3098"
           sodipodi:role="line"
           y="0"
           x="0 3.104373 4.4754362 7.0727916 10.06345 11.434521 12.790521 15.781179 17.877369 19.973566 23.133457"
           style="font-size:6px;font-variant:normal;font-weight:normal;writing-mode:lr-tb;fill:#100f0d;fill-opacity:1;fill-rule:nonzero;stroke:none;font-family:Calibri;-inkscape-font-specification:Calibri">Pixel error</tspan>
      </text>
    </g>
    <g
       transform="matrix(0,1.2499995,1.2499995,0,32.694076,556.60202)"
       id="g3164">
      <text
         id="text3166"
         transform="matrix(0,1,1,0,69.5461,141.355)">
        <tspan
           id="tspan3168"
           sodipodi:role="line"
           y="0"
           x="0 2.7511582 7.5461688 10.706074 13.865965 15.875965 19.023577 20.379578 22.724947 25.872561 27.968758 29.690857 32.564857 35.103764 38.094418 39.450417 42.441082 44.537266 46.526661 49.68655"
           style="font-size:6px;font-variant:normal;font-weight:normal;writing-mode:lr-tb;fill:#231f20;fill-opacity:1;fill-rule:nonzero;stroke:none;font-family:Calibri;-inkscape-font-specification:Calibri">Smooth surface error</tspan>
      </text>
    </g>
  </g>
</svg>
